<svg width="32" height="32" viewBox="0 0 32 32" fill="none" xmlns="http://www.w3.org/2000/svg">
<g clip-path="url(#clip0_25_3)">
<path d="M28.3947 11.5811C28.2395 11.2542 27.9099 11.0457 27.5479 11.0457H18.145L23.8363 1.41444C24.0075 1.12463 24.0102 0.765125 23.8434 0.472813C23.6765 0.1805 23.3657 -0.000124935 23.029 6.48369e-08L14.9957 0.000875065C14.6623 0.00100006 14.354 0.178 14.186 0.465938L3.64231 18.5399C3.47312 18.8299 3.47193 19.1881 3.63912 19.4792C3.80631 19.7703 4.11637 19.9498 4.45206 19.9498H13.795L11.0738 30.8351C10.9673 31.2609 11.1707 31.7038 11.5632 31.9006C11.6971 31.9676 11.8407 32 11.9829 32C12.2576 32 12.5269 31.8793 12.7097 31.655L28.2744 12.5758C28.5032 12.2953 28.55 11.9081 28.3947 11.5811Z" fill="#6C5DD3"/>
</g>
<defs>
<clipPath id="clip0_25_3">
<rect width="32" height="32" fill="white"/>
</clipPath>
</defs>
</svg>
